<svg xmlns="http://www.w3.org/2000/svg" style="display: none;"><symbol id="icon-dribbble" viewBox="0 0 24 24"><title>dribbble</title><g class="nc-icon-wrapper"><path fill-rule="evenodd" clip-rule="evenodd" fill="currentColor" d="M12,24C5.4,24,0,18.6,0,12S5.4,0,12,0s12,5.4,12,12S18.6,24,12,24z M22.1,13.6c-0.4-0.1-3.2-1-6.4-0.4c1.3,3.7,1.9,6.7,2,7.3C20,19,21.7,16.5,22.1,13.6z M16,21.5c-0.2-0.9-0.7-4-2.2-7.8 c0,0,0,0-0.1,0c-5.8,2-7.9,6-8,6.4c1.7,1.4,3.9,2.2,6.3,2.2C13.4,22.3,14.8,22,16,21.5z M4.4,18.9c0.2-0.4,3-5.1,8.3-6.8 c0.1,0,0.3-0.1,0.4-0.1c-0.3-0.6-0.5-1.2-0.8-1.7c-5.1,1.5-10.1,1.5-10.5,1.5c0,0.1,0,0.2,0,0.3C1.8,14.6,2.7,17.1,4.4,18.9z M2,9.9 c0.5,0,4.7,0,9.5-1.2c-1.7-3-3.5-5.6-3.8-5.9C4.8,4.1,2.6,6.7,2,9.9z M9.6,2.1c0.3,0.4,2.1,2.9,3.8,6c3.6-1.4,5.2-3.4,5.4-3.7 C17,2.7,14.6,1.8,12,1.8C11.2,1.8,10.4,1.9,9.6,2.1z M19.9,5.5c-0.2,0.3-1.9,2.5-5.7,4c0.2,0.5,0.5,1,0.7,1.5 c0.1,0.2,0.1,0.4,0.2,0.5c3.4-0.4,6.8,0.3,7.1,0.3C22.2,9.5,21.4,7.3,19.9,5.5z" stroke="none"></path></g></symbol><symbol id="icon-facebook" viewBox="0 0 24 24"><title>facebook</title><g class="nc-icon-wrapper"><path fill="currentColor" d="M9.03153,23L9,13H5V9h4V6.5C9,2.7886,11.29832,1,14.60914,1c1.58592,0,2.94893,0.11807,3.34615,0.17085 v3.87863l-2.29623,0.00104c-1.80061,0-2.14925,0.85562-2.14925,2.11119V9H18.75l-2,4h-3.24019v10H9.03153z" stroke="none"></path></g></symbol><symbol id="icon-instagram" viewBox="0 0 24 24"><title>instagram</title><g class="nc-icon-wrapper"><path d="M12,2.982c2.937,0,3.285.011,4.445.064a6.072,6.072,0,0,1,2.042.379,3.4,3.4,0,0,1,1.265.823,3.4,3.4,0,0,1,.823,1.265,6.072,6.072,0,0,1,.379,2.042c.053,1.16.064,1.508.064,4.445s-.011,3.285-.064,4.445a6.072,6.072,0,0,1-.379,2.042,3.644,3.644,0,0,1-2.088,2.088,6.072,6.072,0,0,1-2.042.379c-1.16.053-1.508.064-4.445.064s-3.285-.011-4.445-.064a6.072,6.072,0,0,1-2.042-.379,3.4,3.4,0,0,1-1.265-.823,3.4,3.4,0,0,1-.823-1.265,6.072,6.072,0,0,1-.379-2.042c-.053-1.16-.064-1.508-.064-4.445s.011-3.285.064-4.445a6.072,6.072,0,0,1,.379-2.042,3.4,3.4,0,0,1,.823-1.265,3.4,3.4,0,0,1,1.265-.823,6.072,6.072,0,0,1,2.042-.379c1.16-.053,1.508-.064,4.445-.064M12,1c-2.987,0-3.362.013-4.535.066a8.108,8.108,0,0,0-2.67.511A5.625,5.625,0,0,0,1.577,4.8a8.108,8.108,0,0,0-.511,2.67C1.013,8.638,1,9.013,1,12s.013,3.362.066,4.535a8.108,8.108,0,0,0,.511,2.67A5.625,5.625,0,0,0,4.8,22.423a8.108,8.108,0,0,0,2.67.511C8.638,22.987,9.013,23,12,23s3.362-.013,4.535-.066a8.108,8.108,0,0,0,2.67-.511A5.625,5.625,0,0,0,22.423,19.2a8.108,8.108,0,0,0,.511-2.67C22.987,15.362,23,14.987,23,12s-.013-3.362-.066-4.535a8.108,8.108,0,0,0-.511-2.67A5.625,5.625,0,0,0,19.2,1.577a8.108,8.108,0,0,0-2.67-.511C15.362,1.013,14.987,1,12,1Z" fill="currentColor" stroke="none"></path><path d="M12,6.351A5.649,5.649,0,1,0,17.649,12,5.649,5.649,0,0,0,12,6.351Zm0,9.316A3.667,3.667,0,1,1,15.667,12,3.667,3.667,0,0,1,12,15.667Z" fill="currentColor" stroke="none"></path><circle cx="17.872" cy="6.128" r="1.32" fill="currentColor" stroke="none"></circle></g></symbol><symbol id="icon-github" viewBox="0 0 24 24"><title>github</title><g class="nc-icon-wrapper"><path fill-rule="evenodd" clip-rule="evenodd" fill="currentColor" d="M12,0.3c-6.6,0-12,5.4-12,12c0,5.3,3.4,9.8,8.2,11.4 C8.8,23.8,9,23.4,9,23.1c0-0.3,0-1,0-2c-3.3,0.7-4-1.6-4-1.6c-0.5-1.4-1.3-1.8-1.3-1.8C2.5,17,3.7,17,3.7,17 c1.2,0.1,1.8,1.2,1.8,1.2c1.1,1.8,2.8,1.3,3.5,1c0.1-0.8,0.4-1.3,0.8-1.6c-2.7-0.3-5.5-1.3-5.5-5.9c0-1.3,0.5-2.4,1.2-3.2 C5.5,8.1,5,6.9,5.7,5.3c0,0,1-0.3,3.3,1.2c1-0.3,2-0.4,3-0.4c1,0,2,0.1,3,0.4c2.3-1.6,3.3-1.2,3.3-1.2c0.7,1.7,0.2,2.9,0.1,3.2 c0.8,0.8,1.2,1.9,1.2,3.2c0,4.6-2.8,5.6-5.5,5.9c0.4,0.4,0.8,1.1,0.8,2.2c0,1.6,0,2.9,0,3.3c0,0.3,0.2,0.7,0.8,0.6 c4.8-1.6,8.2-6.1,8.2-11.4C24,5.7,18.6,0.3,12,0.3z" stroke="none"></path></g></symbol><symbol id="icon-pinterest" viewBox="0 0 24 24"><title>pinterest</title><g class="nc-icon-wrapper"><path fill="currentColor" d="M12,0C5.4,0,0,5.4,0,12c0,5.1,3.2,9.4,7.6,11.2c-0.1-0.9-0.2-2.4,0-3.4c0.2-0.9,1.4-6,1.4-6S8.7,13,8.7,12 c0-1.7,1-2.9,2.2-2.9c1,0,1.5,0.8,1.5,1.7c0,1-0.7,2.6-1,4c-0.3,1.2,0.6,2.2,1.8,2.2c2.1,0,3.8-2.2,3.8-5.5c0-2.9-2.1-4.9-5-4.9 c-3.4,0-5.4,2.6-5.4,5.2c0,1,0.4,2.1,0.9,2.7c0.1,0.1,0.1,0.2,0.1,0.3c-0.1,0.4-0.3,1.2-0.3,1.4c-0.1,0.2-0.2,0.3-0.4,0.2 c-1.5-0.7-2.4-2.9-2.4-4.6c0-3.8,2.8-7.3,7.9-7.3c4.2,0,7.4,3,7.4,6.9c0,4.1-2.6,7.5-6.2,7.5c-1.2,0-2.4-0.6-2.8-1.4 c0,0-0.6,2.3-0.7,2.9c-0.3,1-1,2.3-1.5,3.1C9.6,23.8,10.8,24,12,24c6.6,0,12-5.4,12-12C24,5.4,18.6,0,12,0z" stroke="none"></path></g></symbol><symbol id="icon-spotify" viewBox="0 0 24 24"><title>spotify</title><g class="nc-icon-wrapper"><path fill="currentColor" d="M12,0C5.4,0,0,5.4,0,12s5.4,12,12,12s12-5.4,12-12S18.7,0,12,0z M17.5,17.3c-0.2,0.4-0.7,0.5-1,0.2 c-2.8-1.7-6.4-2.1-10.6-1.1c-0.4,0.1-0.8-0.2-0.9-0.5c-0.1-0.4,0.2-0.8,0.5-0.9c4.6-1,8.5-0.6,11.6,1.3C17.6,16.5,17.7,17,17.5,17.3 z M19,14c-0.3,0.4-0.8,0.6-1.3,0.3c-3.2-2-8.2-2.6-11.9-1.4c-0.5,0.1-1-0.1-1.1-0.6c-0.1-0.5,0.1-1,0.6-1.1 c4.4-1.3,9.8-0.7,13.5,1.6C19.1,13,19.3,13.6,19,14z M19.1,10.7C15.2,8.4,8.8,8.2,5.2,9.3C4.6,9.5,4,9.1,3.8,8.6 C3.6,8,4,7.4,4.5,7.2c4.3-1.3,11.3-1,15.7,1.6c0.5,0.3,0.7,1,0.4,1.6C20.3,10.8,19.6,11,19.1,10.7z" stroke="none"></path></g></symbol><symbol id="icon-soundcloud" viewBox="0 0 24 24"><title>soundcloud</title><g class="nc-icon-wrapper"><path d="M0.45116,12.30429c-0.00855-0.05933-0.05105-0.10023-0.10343-0.10023 c-0.05265,0-0.09622,0.04223-0.10343,0.10023C0.24429,12.30482,0,14.53628,0,14.53628l0.24429,2.18255 c0.00695,0.05853,0.05051,0.10076,0.10343,0.10076c0.05212,0,0.09461-0.04116,0.10317-0.10023l0.27796-2.18308L0.45116,12.30429z" stroke="none"></path> <path d="M4.30095,10.24549c-0.10023,0-0.18308,0.08205-0.18789,0.18629l-0.19457,4.10637 l0.19457,2.65375c0.00508,0.1037,0.08767,0.18549,0.18789,0.18549c0.09969,0,0.18228-0.08205,0.18816-0.18602v0.0008 l0.21996-2.65402l-0.21996-4.10637C4.48323,10.32754,4.40064,10.24549,4.30095,10.24549z" stroke="none"></path> <path d="M2.30843,11.67272c-0.07697,0-0.13978,0.06147-0.14593,0.14353l-0.21916,2.72083 l0.21916,2.63237c0.00588,0.08152,0.06896,0.14299,0.14593,0.14299c0.07617,0,0.13898-0.06147,0.14566-0.14299l0.2491-2.63237 l-0.2491-2.72137C2.44741,11.7342,2.38461,11.67272,2.30843,11.67272z" stroke="none"></path> <path d="M6.32581,17.37712c0.12428,0,0.22531-0.10023,0.23039-0.22852l0.19083-2.60911 L6.55646,9.07243C6.55138,8.94414,6.45035,8.84391,6.32607,8.84391c-0.12535,0-0.22665,0.10049-0.23066,0.22879l-0.16918,5.46652 l0.16918,2.61018C6.09943,17.27663,6.20072,17.37712,6.32581,17.37712z" stroke="none"></path> <path d="M10.4712,17.38942c0.17105,0,0.31217-0.14085,0.31538-0.31404v0.00187v-0.00187 l0.1331-2.53428l-0.1331-6.31404C10.78364,8.05412,10.64226,7.913,10.4712,7.913c-0.17132,0-0.31271,0.14085-0.31538,0.31431 l-0.11894,6.31164c0,0.00401,0.11894,2.53802,0.11894,2.53802C10.15849,17.24856,10.30015,17.38942,10.4712,17.38942z" stroke="none"></path> <path d="M8.38273,17.37953c0.14887,0,0.26888-0.11947,0.27289-0.27181v0.00187l0.16197-2.56956 L8.65535,9.03341C8.65134,8.88106,8.53134,8.76186,8.38247,8.76186c-0.14994,0-0.26994,0.1192-0.27315,0.27155l-0.14406,5.50688 l0.14433,2.56902C8.11279,17.26006,8.23279,17.37953,8.38273,17.37953z" stroke="none"></path> <path fill="currentColor" d="M20.94347,11.28224c-0.41882,0-0.81839,0.08472-1.18241,0.23734 c-0.24322-2.75504-2.55352-4.91621-5.37164-4.91621c-0.68956,0-1.36175,0.13577-1.95537,0.36536 c-0.23066,0.08927-0.29213,0.18121-0.29427,0.35948v9.70199c0.00241,0.18709,0.14753,0.34291,0.33008,0.36135 c0.00775,0.0008,8.41882,0.00508,8.47334,0.00508c1.68809,0,3.0568-1.3687,3.0568-3.05706S22.63157,11.28224,20.94347,11.28224z" stroke="none"></path></g></symbol><symbol id="icon-twitter" viewBox="0 0 24 24"><title>twitter</title><g class="nc-icon-wrapper"><path fill="currentColor" d="M24,4.6c-0.9,0.4-1.8,0.7-2.8,0.8c1-0.6,1.8-1.6,2.2-2.7c-1,0.6-2,1-3.1,1.2c-0.9-1-2.2-1.6-3.6-1.6 c-2.7,0-4.9,2.2-4.9,4.9c0,0.4,0,0.8,0.1,1.1C7.7,8.1,4.1,6.1,1.7,3.1C1.2,3.9,1,4.7,1,5.6c0,1.7,0.9,3.2,2.2,4.1 C2.4,9.7,1.6,9.5,1,9.1c0,0,0,0,0,0.1c0,2.4,1.7,4.4,3.9,4.8c-0.4,0.1-0.8,0.2-1.3,0.2c-0.3,0-0.6,0-0.9-0.1c0.6,2,2.4,3.4,4.6,3.4 c-1.7,1.3-3.8,2.1-6.1,2.1c-0.4,0-0.8,0-1.2-0.1c2.2,1.4,4.8,2.2,7.5,2.2c9.1,0,14-7.5,14-14c0-0.2,0-0.4,0-0.6 C22.5,6.4,23.3,5.5,24,4.6z" stroke="none"></path></g></symbol><symbol id="icon-vimeo" viewBox="0 0 24 24"><title>vimeo</title><g class="nc-icon-wrapper"><path fill="currentColor" d="M24,6.4c-0.1,2.3-1.7,5.5-4.9,9.6c-3.3,4.2-6,6.4-8.3,6.4c-1.4,0-2.6-1.3-3.6-3.9c-0.6-2.4-1.3-4.7-1.9-7.1 C4.6,8.8,3.8,7.5,3,7.5c-0.2,0-0.8,0.4-1.9,1.1L0,7.2c1.2-1,2.4-2.1,3.5-3.1C5.1,2.7,6.3,2,7.1,1.9c1.9-0.2,3,1.1,3.4,3.8 c0.5,2.9,0.8,4.8,1,5.5c0.5,2.4,1.1,3.7,1.8,3.7c0.5,0,1.3-0.8,2.3-2.4c1-1.6,1.5-2.8,1.6-3.6c0.1-1.4-0.4-2.1-1.6-2.1 c-0.6,0-1.2,0.1-1.8,0.4c1.2-3.9,3.4-5.7,6.8-5.6C23,1.7,24.1,3.3,24,6.4z" stroke="none"></path></g></symbol><symbol id="icon-whatsapp" viewBox="0 0 24 24"><title>whatsapp</title><g class="nc-icon-wrapper"><path fill="currentColor" d="M0.05369,24l1.68771-6.16271c-1.04102-1.80344-1.58881-3.84947-1.58796-5.94549 C0.15607,5.33464,5.49277,0,12.04988,0c3.18237,0.00127,6.16932,1.23986,8.41533,3.48773 c2.24607,2.24788,3.48232,5.23587,3.48109,8.41356c-0.00266,6.55716-5.33983,11.8925-11.89626,11.8925h-0.00003h-0.00487 c-1.99106-0.00082-3.9474-0.50012-5.68498-1.44752L0.05369,24z M6.65233,20.19318l0.36107,0.21425 c1.5181,0.90064,3.25833,1.3771,5.03255,1.37779h0.00405c5.44987,0,9.88551-4.43425,9.88772-9.88468 c0.00101-2.64119-1.0265-5.1247-2.89334-6.99306c-1.86684-1.86836-4.34946-2.89789-6.99046-2.8989 c-5.45405,0-9.88973,4.43393-9.89191,9.88399c-0.00076,1.86766,0.52201,3.68667,1.51178,5.26048l0.23513,0.37395l-0.99891,3.64756 L6.65233,20.19318z" stroke="none"></path> <path fill-rule="evenodd" clip-rule="evenodd" d="M9.07668,6.92043 C8.83542,6.34098,8.59035,6.41938,8.40789,6.4103c-0.17318-0.00862-0.37154-0.01044-0.5697-0.01044S7.31801,6.47422,7.04553,6.77169 C6.77307,7.06918,6.0052,7.7881,6.0052,9.25069c0,1.46259,1.06511,2.8756,1.21374,3.07393 c0.14861,0.19833,2.09602,3.1998,5.07784,4.48696c0.70918,0.30615,1.26289,0.48895,1.69455,0.62597 c0.71212,0.22611,1.36011,0.19422,1.87228,0.11772c0.57108-0.08529,1.75864-0.71889,2.00636-1.41301 c0.24769-0.69412,0.24769-1.28908,0.17337-1.41304c-0.07428-0.12392-0.27246-0.1983-0.56969-0.34706 c-0.29726-0.14872-1.75867-0.86765-2.03116-0.96679c-0.27246-0.09915-0.4706-0.14873-0.66877,0.14875 c-0.19814,0.29745-0.7678,0.9668-0.9412,1.1651c-0.17337,0.19833-0.34677,0.22314-0.644,0.07438 c-0.29726-0.14872-1.25504-0.46253-2.3904-1.47489c-0.88362-0.78789-1.48023-1.76108-1.65362-2.05856 c-0.17339-0.29748-0.01844-0.45833,0.13036-0.60645c0.1337-0.13313,0.29723-0.34706,0.44586-0.52059 c0.14861-0.17353,0.19816-0.29748,0.29723-0.49578c0.09909-0.19833,0.04954-0.37186-0.02477-0.5206 C9.91886,8.978,9.3244,7.51538,9.07668,6.92043z" stroke="none"></path></g></symbol><symbol id="icon-messenger" viewBox="0 0 24 24"><title>messenger</title><g class="nc-icon-wrapper"><path fill="currentColor" d="M12,0C5.439,0,0.121,4.973,0.121,11.108c0,3.49,1.721,6.604,4.413,8.64V24l4.054-2.249 c1.081,0.303,2.226,0.465,3.412,0.465c6.561,0,11.879-4.973,11.879-11.108S18.561,0,12,0z M13.251,14.896l-3.072-3.192l-5.917,3.272 l6.487-6.884l3.072,3.192l5.917-3.272L13.251,14.896z" stroke="none"></path> </g></symbol><symbol id="icon-medium" viewBox="0 0 24 24"><title>medium</title><g class="nc-icon-wrapper"><path d="M23,0H1A1,1,0,0,0,0,1V23a1,1,0,0,0,1,1H23a1,1,0,0,0,1-1V1A1,1,0,0,0,23,0ZM19.938,5.686,18.651,6.92a.376.376,0,0,0-.143.361v9.068a.376.376,0,0,0,.143.361l1.257,1.234v.271H13.586v-.271l1.3-1.264c.128-.128.128-.166.128-.361V8.99l-3.621,9.2h-.489L6.691,8.99v6.163a.85.85,0,0,0,.233.707l1.694,2.054v.271h-4.8v-.271L5.509,15.86a.82.82,0,0,0,.218-.707V8.027a.625.625,0,0,0-.2-.527L4.019,5.686V5.415H8.693l3.613,7.924,3.176-7.924h4.456Z" fill="currentColor" stroke="none"></path>
</g></symbol><symbol id="icon-linkedin" viewBox="0 0 25 25"><title>linkedin</title><g class="nc-icon-wrapper"><path d="M5.61 24.2H.754V8.246h4.994V24.2H5.61zM3.113 6.027C1.587 6.027.199 4.778.199 3.113.2 1.587 1.448.2 3.113.2c1.526 0 2.913 1.249 2.913 2.913 0 1.665-1.249 2.914-2.913 2.914zM24.199 24.2h-4.994v-7.769c0-1.803 0-4.162-2.497-4.162-2.636 0-2.913 1.942-2.913 4.023V24.2H8.8V8.246h4.717v2.22c.694-1.249 2.22-2.497 4.717-2.497 4.994 0 5.965 3.33 5.965 7.63V24.2z" fill="currentColor" stroke="none"></path></g></symbol><symbol id="icon-youtube" viewBox="0 0 24 24"><title>youtube</title><g class="nc-icon-wrapper"><path fill="currentColor" d="M23.8,7.2c0,0-0.2-1.7-1-2.4c-0.9-1-1.9-1-2.4-1C17,3.6,12,3.6,12,3.6h0c0,0-5,0-8.4,0.2 c-0.5,0.1-1.5,0.1-2.4,1c-0.7,0.7-1,2.4-1,2.4S0,9.1,0,11.1v1.8c0,1.9,0.2,3.9,0.2,3.9s0.2,1.7,1,2.4c0.9,1,2.1,0.9,2.6,1 c1.9,0.2,8.2,0.2,8.2,0.2s5,0,8.4-0.3c0.5-0.1,1.5-0.1,2.4-1c0.7-0.7,1-2.4,1-2.4s0.2-1.9,0.2-3.9v-1.8C24,9.1,23.8,7.2,23.8,7.2z M9.5,15.1l0-6.7l6.5,3.4L9.5,15.1z" stroke="none"></path></g></symbol><symbol id="icon-email-thin" viewBox="0 0 24 24"><title>email thin</title><g class="nc-icon-wrapper"><polyline points="19 7 12 14 5 7" fill="none"></polyline> <rect x="1" y="3" width="22" height="18" rx="2" ry="2" fill="none" stroke="currentColor"></rect> <line x1="7" y1="15" x2="5" y2="17" fill="none"></line> <line x1="17" y1="15" x2="19" y2="17" fill="none"></line></g></symbol><symbol id="icon-email" viewBox="0 0 24 24"><title>email</title><g class="nc-icon-wrapper"><path d="M21,2H3A3,3,0,0,0,0,5V19a3,3,0,0,0,3,3H21a3,3,0,0,0,3-3V5A3,3,0,0,0,21,2ZM8.207,15.207l-2.5,2.5a1,1,0,0,1-1.414-1.414l2.5-2.5Zm11.5,2.5a1,1,0,0,1-1.414,0l-2.5-2.5,1.414-1.414,2.5,2.5A1,1,0,0,1,19.707,17.707Zm0-10-7,7a1,1,0,0,1-1.414,0l-7-7A1,1,0,0,1,5.707,6.293L12,12.586l6.293-6.293a1,1,0,1,1,1.414,1.414Z" fill="currentColor" stroke="none"></path></g></symbol></svg>